<svg width="244" height="179" xmlns="http://www.w3.org/2000/svg" xmlns:xlink="http://www.w3.org/1999/xlink" xml:space="preserve" overflow="hidden"><g transform="translate(-36 -41)"><g><g><g><g><path d="M881.792 147.383 892.19 147.383C897.116 147.383 901.311 148.275 904.776 150.06 908.243 151.844 910.897 154.493 912.739 158.007 914.582 161.521 915.503 165.883 915.503 171.089 915.503 176.552 914.646 181.077 912.93 184.664 911.216 188.25 908.634 190.927 905.187 192.693 901.739 194.459 897.407 195.342 892.19 195.342L881.792 195.342ZM978.49 134.602 978.49 208.124 993.868 208.124 993.868 176.88 1027.25 176.88 1027.25 208.124 1042.63 208.124 1042.63 134.602 1027.25 134.602 1027.25 163.333 993.868 163.333 993.868 134.602ZM945.615 134.602 945.615 208.124 960.993 208.124 960.993 134.602ZM866.415 134.602 866.415 208.124 893.832 208.124C901.639 208.124 908.343 206.695 913.943 203.836 919.543 200.978 923.839 196.799 926.831 191.3 929.822 185.801 931.318 179.101 931.318 171.199 931.318 163.552 929.841 156.997 926.885 151.535 923.93 146.073 919.652 141.884 914.053 138.972 908.453 136.058 901.713 134.602 893.832 134.602ZM845.578 84.5225 1063.63 84.5225C1069.88 84.5225 1074.93 89.5685 1074.93 95.7931L1074.93 248.263C1074.93 254.488 1069.88 259.534 1063.63 259.534L845.578 259.534C839.342 259.534 834.286 254.488 834.286 248.263L834.286 95.7931C834.286 89.5685 839.342 84.5225 845.578 84.5225Z" fill="#000000" fill-rule="evenodd" fill-opacity="1" transform="matrix(1.00565 0 0 1 -802 -41.5281)"/></g></g></g></g></g></svg>